<mxfile host="app.diagrams.net" agent="Mozilla/5.0 (Windows NT 10.0; Win64; x64) AppleWebKit/537.36 (KHTML, like Gecko) Chrome/131.0.0.0 Safari/537.36 Edg/131.0.0.0" version="26.0.4">
  <diagram name="Page-1" id="mf-qDKUAfRJFWpKasMVZ">
    <mxGraphModel dx="1473" dy="1916" grid="1" gridSize="10" guides="1" tooltips="1" connect="1" arrows="1" fold="1" page="1" pageScale="1" pageWidth="850" pageHeight="1100" math="0" shadow="0">
      <root>
        <mxCell id="0" />
        <mxCell id="1" parent="0" />
        <mxCell id="66I1xm5hAQ6pAiA84hfy-1" value="18650" style="rounded=0;whiteSpace=wrap;html=1;fillColor=#f8cecc;strokeColor=#b85450;" vertex="1" parent="1">
          <mxGeometry x="470" y="330" width="310" height="60" as="geometry" />
        </mxCell>
        <mxCell id="66I1xm5hAQ6pAiA84hfy-2" value="-" style="text;html=1;align=center;verticalAlign=middle;whiteSpace=wrap;rounded=0;" vertex="1" parent="1">
          <mxGeometry x="470" y="345" width="20" height="30" as="geometry" />
        </mxCell>
        <mxCell id="66I1xm5hAQ6pAiA84hfy-3" value="+" style="text;html=1;align=center;verticalAlign=middle;whiteSpace=wrap;rounded=0;" vertex="1" parent="1">
          <mxGeometry x="760" y="345" width="20" height="30" as="geometry" />
        </mxCell>
        <mxCell id="66I1xm5hAQ6pAiA84hfy-4" value="" style="endArrow=none;html=1;rounded=0;exitX=0;exitY=0.5;exitDx=0;exitDy=0;" edge="1" parent="1" source="66I1xm5hAQ6pAiA84hfy-2">
          <mxGeometry width="50" height="50" relative="1" as="geometry">
            <mxPoint x="510" y="380" as="sourcePoint" />
            <mxPoint x="410" y="360" as="targetPoint" />
          </mxGeometry>
        </mxCell>
        <mxCell id="66I1xm5hAQ6pAiA84hfy-5" value="" style="endArrow=none;html=1;rounded=0;exitX=0;exitY=0.5;exitDx=0;exitDy=0;fillColor=#f8cecc;strokeColor=#b85450;" edge="1" parent="1">
          <mxGeometry width="50" height="50" relative="1" as="geometry">
            <mxPoint x="840" y="360" as="sourcePoint" />
            <mxPoint x="780" y="360" as="targetPoint" />
          </mxGeometry>
        </mxCell>
        <mxCell id="66I1xm5hAQ6pAiA84hfy-6" value="TP4056" style="rounded=0;whiteSpace=wrap;html=1;fillColor=#dae8fc;strokeColor=#6c8ebf;" vertex="1" parent="1">
          <mxGeometry x="200" y="130" width="170" height="100" as="geometry" />
        </mxCell>
        <mxCell id="66I1xm5hAQ6pAiA84hfy-7" value="&lt;b style=&quot;&quot;&gt;&lt;font style=&quot;font-size: 8px;&quot;&gt;O+&lt;/font&gt;&lt;/b&gt;" style="rounded=0;whiteSpace=wrap;html=1;fillColor=#f5f5f5;fontColor=#333333;strokeColor=#666666;" vertex="1" parent="1">
          <mxGeometry x="350" y="130" width="20" height="20" as="geometry" />
        </mxCell>
        <mxCell id="66I1xm5hAQ6pAiA84hfy-8" value="&lt;b style=&quot;&quot;&gt;&lt;font style=&quot;font-size: 8px;&quot;&gt;B+&lt;/font&gt;&lt;/b&gt;" style="rounded=0;whiteSpace=wrap;html=1;fillColor=#f5f5f5;fontColor=#333333;strokeColor=#666666;" vertex="1" parent="1">
          <mxGeometry x="350" y="150" width="20" height="20" as="geometry" />
        </mxCell>
        <mxCell id="66I1xm5hAQ6pAiA84hfy-9" value="&lt;b style=&quot;&quot;&gt;&lt;font style=&quot;font-size: 8px;&quot;&gt;O-&lt;/font&gt;&lt;/b&gt;" style="rounded=0;whiteSpace=wrap;html=1;fillColor=#f5f5f5;fontColor=#333333;strokeColor=#666666;" vertex="1" parent="1">
          <mxGeometry x="350" y="210" width="20" height="20" as="geometry" />
        </mxCell>
        <mxCell id="66I1xm5hAQ6pAiA84hfy-10" value="&lt;b style=&quot;&quot;&gt;&lt;font style=&quot;font-size: 8px;&quot;&gt;B-&lt;/font&gt;&lt;/b&gt;" style="rounded=0;whiteSpace=wrap;html=1;fillColor=#f5f5f5;fontColor=#333333;strokeColor=#666666;" vertex="1" parent="1">
          <mxGeometry x="350" y="190" width="20" height="20" as="geometry" />
        </mxCell>
        <mxCell id="66I1xm5hAQ6pAiA84hfy-11" value="" style="rounded=0;whiteSpace=wrap;html=1;" vertex="1" parent="1">
          <mxGeometry x="200" y="150" width="20" height="60" as="geometry" />
        </mxCell>
        <mxCell id="66I1xm5hAQ6pAiA84hfy-12" value="" style="endArrow=none;html=1;rounded=0;" edge="1" parent="1">
          <mxGeometry width="50" height="50" relative="1" as="geometry">
            <mxPoint x="410" y="200" as="sourcePoint" />
            <mxPoint x="410" y="360" as="targetPoint" />
          </mxGeometry>
        </mxCell>
        <mxCell id="66I1xm5hAQ6pAiA84hfy-13" value="" style="endArrow=none;html=1;rounded=0;" edge="1" parent="1">
          <mxGeometry width="50" height="50" relative="1" as="geometry">
            <mxPoint x="410" y="200" as="sourcePoint" />
            <mxPoint x="370" y="199.83" as="targetPoint" />
          </mxGeometry>
        </mxCell>
        <mxCell id="66I1xm5hAQ6pAiA84hfy-14" value="" style="endArrow=none;html=1;rounded=0;exitX=0;exitY=0.5;exitDx=0;exitDy=0;fillColor=#f8cecc;strokeColor=#b85450;" edge="1" parent="1">
          <mxGeometry width="50" height="50" relative="1" as="geometry">
            <mxPoint x="840" y="360" as="sourcePoint" />
            <mxPoint x="840" y="160" as="targetPoint" />
          </mxGeometry>
        </mxCell>
        <mxCell id="66I1xm5hAQ6pAiA84hfy-15" value="" style="endArrow=none;html=1;rounded=0;fillColor=#f8cecc;strokeColor=#b85450;" edge="1" parent="1">
          <mxGeometry width="50" height="50" relative="1" as="geometry">
            <mxPoint x="840" y="160" as="sourcePoint" />
            <mxPoint x="370" y="159.83" as="targetPoint" />
          </mxGeometry>
        </mxCell>
        <mxCell id="66I1xm5hAQ6pAiA84hfy-16" value="&lt;font style=&quot;font-size: 8px;&quot;&gt;Rocker (Power) Switch&lt;/font&gt;" style="rounded=0;whiteSpace=wrap;html=1;" vertex="1" parent="1">
          <mxGeometry x="570" y="10" width="90" height="36" as="geometry" />
        </mxCell>
        <mxCell id="66I1xm5hAQ6pAiA84hfy-17" value="" style="rounded=0;whiteSpace=wrap;html=1;fillColor=#FFD700;strokeColor=#36393d;" vertex="1" parent="1">
          <mxGeometry x="570" y="46" width="20" height="31.25" as="geometry" />
        </mxCell>
        <mxCell id="66I1xm5hAQ6pAiA84hfy-18" value="" style="rounded=0;whiteSpace=wrap;html=1;" vertex="1" parent="1">
          <mxGeometry x="640" y="46" width="20" height="31.25" as="geometry" />
        </mxCell>
        <mxCell id="66I1xm5hAQ6pAiA84hfy-19" value="" style="rounded=0;whiteSpace=wrap;html=1;" vertex="1" parent="1">
          <mxGeometry x="605" y="46" width="20" height="31.25" as="geometry" />
        </mxCell>
        <mxCell id="66I1xm5hAQ6pAiA84hfy-20" value="" style="endArrow=none;html=1;rounded=0;fillColor=#f8cecc;strokeColor=#b85450;" edge="1" parent="1">
          <mxGeometry width="50" height="50" relative="1" as="geometry">
            <mxPoint x="615" y="140" as="sourcePoint" />
            <mxPoint x="370" y="139.71" as="targetPoint" />
          </mxGeometry>
        </mxCell>
        <mxCell id="66I1xm5hAQ6pAiA84hfy-21" value="" style="endArrow=none;html=1;rounded=0;fillColor=#f8cecc;strokeColor=#b85450;" edge="1" parent="1">
          <mxGeometry width="50" height="50" relative="1" as="geometry">
            <mxPoint x="615" y="77.25" as="sourcePoint" />
            <mxPoint x="615" y="140" as="targetPoint" />
          </mxGeometry>
        </mxCell>
        <mxCell id="66I1xm5hAQ6pAiA84hfy-22" value="" style="endArrow=none;html=1;rounded=0;fillColor=#f8cecc;strokeColor=#b85450;" edge="1" parent="1">
          <mxGeometry width="50" height="50" relative="1" as="geometry">
            <mxPoint x="650" y="77.25" as="sourcePoint" />
            <mxPoint x="650" y="140" as="targetPoint" />
          </mxGeometry>
        </mxCell>
        <mxCell id="66I1xm5hAQ6pAiA84hfy-23" value="" style="endArrow=none;html=1;rounded=0;fillColor=#f8cecc;strokeColor=#b85450;exitX=0;exitY=0.5;exitDx=0;exitDy=0;" edge="1" parent="1" source="66I1xm5hAQ6pAiA84hfy-27">
          <mxGeometry width="50" height="50" relative="1" as="geometry">
            <mxPoint x="1090" y="140.05" as="sourcePoint" />
            <mxPoint x="650" y="139.76000000000002" as="targetPoint" />
          </mxGeometry>
        </mxCell>
        <mxCell id="66I1xm5hAQ6pAiA84hfy-24" value="" style="endArrow=none;html=1;rounded=0;" edge="1" parent="1">
          <mxGeometry width="50" height="50" relative="1" as="geometry">
            <mxPoint x="650" y="220" as="sourcePoint" />
            <mxPoint x="370" y="219.58" as="targetPoint" />
          </mxGeometry>
        </mxCell>
        <mxCell id="66I1xm5hAQ6pAiA84hfy-25" value="" style="endArrow=none;html=1;rounded=0;" edge="1" parent="1">
          <mxGeometry width="50" height="50" relative="1" as="geometry">
            <mxPoint x="579.58" y="77.25" as="sourcePoint" />
            <mxPoint x="580" y="220" as="targetPoint" />
          </mxGeometry>
        </mxCell>
        <mxCell id="66I1xm5hAQ6pAiA84hfy-26" value="MT3608 to +5V" style="rounded=0;whiteSpace=wrap;html=1;fillColor=#0050ef;fontColor=#ffffff;strokeColor=#001DBC;" vertex="1" parent="1">
          <mxGeometry x="880" y="130" width="190" height="80" as="geometry" />
        </mxCell>
        <mxCell id="66I1xm5hAQ6pAiA84hfy-27" value="VIN +" style="rounded=0;whiteSpace=wrap;html=1;fillColor=#f5f5f5;" vertex="1" parent="1">
          <mxGeometry x="880" y="130" width="50" height="30" as="geometry" />
        </mxCell>
        <mxCell id="66I1xm5hAQ6pAiA84hfy-28" value="VIN -" style="rounded=0;whiteSpace=wrap;html=1;fillColor=#F5F5F5;" vertex="1" parent="1">
          <mxGeometry x="880" y="180" width="50" height="30" as="geometry" />
        </mxCell>
        <mxCell id="66I1xm5hAQ6pAiA84hfy-29" value="VOUT +" style="rounded=0;whiteSpace=wrap;html=1;fillColor=#f5f5f5;" vertex="1" parent="1">
          <mxGeometry x="1020" y="130" width="50" height="30" as="geometry" />
        </mxCell>
        <mxCell id="66I1xm5hAQ6pAiA84hfy-30" value="VOUT -" style="rounded=0;whiteSpace=wrap;html=1;fillColor=#f5f5f5;" vertex="1" parent="1">
          <mxGeometry x="1020" y="180" width="50" height="30" as="geometry" />
        </mxCell>
        <mxCell id="66I1xm5hAQ6pAiA84hfy-31" value="" style="endArrow=none;html=1;rounded=0;" edge="1" parent="1">
          <mxGeometry width="50" height="50" relative="1" as="geometry">
            <mxPoint x="880" y="195" as="sourcePoint" />
            <mxPoint x="650" y="195" as="targetPoint" />
          </mxGeometry>
        </mxCell>
        <mxCell id="66I1xm5hAQ6pAiA84hfy-32" value="" style="endArrow=none;html=1;rounded=0;" edge="1" parent="1">
          <mxGeometry width="50" height="50" relative="1" as="geometry">
            <mxPoint x="650" y="195" as="sourcePoint" />
            <mxPoint x="650" y="220" as="targetPoint" />
          </mxGeometry>
        </mxCell>
        <mxCell id="66I1xm5hAQ6pAiA84hfy-33" value="Raspberry&lt;div&gt;Pi&lt;/div&gt;&lt;div&gt;Pico&lt;/div&gt;" style="rounded=0;whiteSpace=wrap;html=1;fillColor=#cdeb8b;strokeColor=#36393d;" vertex="1" parent="1">
          <mxGeometry x="1210" y="120" width="180" height="370" as="geometry" />
        </mxCell>
        <mxCell id="66I1xm5hAQ6pAiA84hfy-34" value="VSYS" style="rounded=0;whiteSpace=wrap;html=1;fillColor=#f5f5f5;fontSize=10;" vertex="1" parent="1">
          <mxGeometry x="1210" y="130" width="50" height="30" as="geometry" />
        </mxCell>
        <mxCell id="66I1xm5hAQ6pAiA84hfy-35" value="GND" style="rounded=0;whiteSpace=wrap;html=1;fillColor=#f5f5f5;fontSize=10;" vertex="1" parent="1">
          <mxGeometry x="1210" y="180" width="50" height="30" as="geometry" />
        </mxCell>
        <mxCell id="66I1xm5hAQ6pAiA84hfy-36" value="" style="endArrow=none;html=1;rounded=0;fillColor=#f8cecc;strokeColor=#b85450;entryX=1;entryY=0.5;entryDx=0;entryDy=0;" edge="1" parent="1" target="66I1xm5hAQ6pAiA84hfy-29">
          <mxGeometry width="50" height="50" relative="1" as="geometry">
            <mxPoint x="1210" y="145" as="sourcePoint" />
            <mxPoint x="1130" y="144.71" as="targetPoint" />
          </mxGeometry>
        </mxCell>
        <mxCell id="66I1xm5hAQ6pAiA84hfy-37" value="" style="endArrow=none;html=1;rounded=0;fillColor=#f8cecc;strokeColor=#050202;entryX=1;entryY=0.5;entryDx=0;entryDy=0;" edge="1" parent="1" target="66I1xm5hAQ6pAiA84hfy-30">
          <mxGeometry width="50" height="50" relative="1" as="geometry">
            <mxPoint x="1210" y="196.14" as="sourcePoint" />
            <mxPoint x="1130" y="195.85000000000002" as="targetPoint" />
          </mxGeometry>
        </mxCell>
        <mxCell id="66I1xm5hAQ6pAiA84hfy-46" value="GP21" style="rounded=0;whiteSpace=wrap;html=1;fillColor=#f5f5f5;fontSize=10;" vertex="1" parent="1">
          <mxGeometry x="1210" y="352.5" width="50" height="15" as="geometry" />
        </mxCell>
        <mxCell id="66I1xm5hAQ6pAiA84hfy-47" value="" style="endArrow=none;html=1;rounded=0;fillColor=#f8cecc;strokeColor=#b85450;" edge="1" parent="1">
          <mxGeometry width="50" height="50" relative="1" as="geometry">
            <mxPoint x="810" y="80" as="sourcePoint" />
            <mxPoint x="810" y="90" as="targetPoint" />
          </mxGeometry>
        </mxCell>
        <mxCell id="66I1xm5hAQ6pAiA84hfy-48" value="" style="endArrow=none;html=1;rounded=0;" edge="1" parent="1">
          <mxGeometry width="50" height="50" relative="1" as="geometry">
            <mxPoint x="850" y="80" as="sourcePoint" />
            <mxPoint x="580" y="220" as="targetPoint" />
          </mxGeometry>
        </mxCell>
        <mxCell id="66I1xm5hAQ6pAiA84hfy-49" value="" style="endArrow=none;html=1;rounded=0;fillColor=#dae8fc;strokeColor=#6c8ebf;dashed=1;" edge="1" parent="1">
          <mxGeometry width="50" height="50" relative="1" as="geometry">
            <mxPoint x="830" y="40" as="sourcePoint" />
            <mxPoint x="810" y="80.00000000000003" as="targetPoint" />
          </mxGeometry>
        </mxCell>
        <mxCell id="66I1xm5hAQ6pAiA84hfy-50" value="" style="endArrow=none;html=1;rounded=0;fillColor=#dae8fc;strokeColor=#6c8ebf;dashed=1;" edge="1" parent="1">
          <mxGeometry width="50" height="50" relative="1" as="geometry">
            <mxPoint x="830" y="40" as="sourcePoint" />
            <mxPoint x="850" y="80" as="targetPoint" />
          </mxGeometry>
        </mxCell>
        <mxCell id="66I1xm5hAQ6pAiA84hfy-51" style="edgeStyle=orthogonalEdgeStyle;rounded=0;orthogonalLoop=1;jettySize=auto;html=1;exitX=1;exitY=0.5;exitDx=0;exitDy=0;fillColor=#dae8fc;strokeColor=#6c8ebf;" edge="1" parent="1" source="66I1xm5hAQ6pAiA84hfy-52">
          <mxGeometry relative="1" as="geometry">
            <mxPoint x="820" y="54.93877551020407" as="targetPoint" />
          </mxGeometry>
        </mxCell>
        <mxCell id="66I1xm5hAQ6pAiA84hfy-52" value="&lt;font style=&quot;font-size: 8px;&quot;&gt;R1 Resistor: 47,000 ohms&lt;/font&gt;" style="text;html=1;align=center;verticalAlign=middle;whiteSpace=wrap;rounded=0;" vertex="1" parent="1">
          <mxGeometry x="720" y="40" width="60" height="30" as="geometry" />
        </mxCell>
        <mxCell id="66I1xm5hAQ6pAiA84hfy-53" style="edgeStyle=orthogonalEdgeStyle;rounded=0;orthogonalLoop=1;jettySize=auto;html=1;exitX=0;exitY=0.5;exitDx=0;exitDy=0;fillColor=#dae8fc;strokeColor=#6c8ebf;" edge="1" parent="1" source="66I1xm5hAQ6pAiA84hfy-54">
          <mxGeometry relative="1" as="geometry">
            <mxPoint x="840" y="54.93877551020407" as="targetPoint" />
          </mxGeometry>
        </mxCell>
        <mxCell id="66I1xm5hAQ6pAiA84hfy-54" value="&lt;font style=&quot;font-size: 8px;&quot;&gt;R2 Resistor: 100,000 ohms&lt;/font&gt;" style="text;html=1;align=center;verticalAlign=middle;whiteSpace=wrap;rounded=0;" vertex="1" parent="1">
          <mxGeometry x="870" y="40" width="60" height="30" as="geometry" />
        </mxCell>
        <mxCell id="66I1xm5hAQ6pAiA84hfy-55" value="" style="endArrow=none;html=1;rounded=0;fillColor=#dae8fc;strokeColor=#6c8ebf;" edge="1" parent="1">
          <mxGeometry width="50" height="50" relative="1" as="geometry">
            <mxPoint x="830" y="40" as="sourcePoint" />
            <mxPoint x="830" y="10" as="targetPoint" />
          </mxGeometry>
        </mxCell>
        <mxCell id="66I1xm5hAQ6pAiA84hfy-56" value="" style="endArrow=none;html=1;rounded=0;fillColor=#dae8fc;strokeColor=#6c8ebf;" edge="1" parent="1">
          <mxGeometry width="50" height="50" relative="1" as="geometry">
            <mxPoint x="830" y="10" as="sourcePoint" />
            <mxPoint x="1300" y="10" as="targetPoint" />
          </mxGeometry>
        </mxCell>
        <mxCell id="66I1xm5hAQ6pAiA84hfy-57" value="" style="endArrow=none;html=1;rounded=0;fillColor=#dae8fc;strokeColor=#6c8ebf;" edge="1" parent="1">
          <mxGeometry width="50" height="50" relative="1" as="geometry">
            <mxPoint x="1300" y="120" as="sourcePoint" />
            <mxPoint x="1300" y="10" as="targetPoint" />
          </mxGeometry>
        </mxCell>
        <mxCell id="66I1xm5hAQ6pAiA84hfy-58" value="&lt;font size=&quot;1&quot;&gt;GP26&lt;/font&gt;" style="rounded=0;whiteSpace=wrap;html=1;fillColor=#f5f5f5;fontSize=10;" vertex="1" parent="1">
          <mxGeometry x="1275" y="120" width="50" height="30" as="geometry" />
        </mxCell>
        <mxCell id="66I1xm5hAQ6pAiA84hfy-59" value="" style="endArrow=none;html=1;rounded=0;fillColor=#f8cecc;strokeColor=#b85450;" edge="1" parent="1">
          <mxGeometry width="50" height="50" relative="1" as="geometry">
            <mxPoint x="810" y="90" as="sourcePoint" />
            <mxPoint x="660" y="90" as="targetPoint" />
          </mxGeometry>
        </mxCell>
        <mxCell id="66I1xm5hAQ6pAiA84hfy-60" value="" style="endArrow=none;html=1;rounded=0;fillColor=#f8cecc;strokeColor=#b85450;entryX=0.5;entryY=1;entryDx=0;entryDy=0;" edge="1" parent="1" target="66I1xm5hAQ6pAiA84hfy-18">
          <mxGeometry width="50" height="50" relative="1" as="geometry">
            <mxPoint x="660" y="90" as="sourcePoint" />
            <mxPoint x="670" y="100" as="targetPoint" />
          </mxGeometry>
        </mxCell>
        <mxCell id="66I1xm5hAQ6pAiA84hfy-61" value="GND" style="rounded=0;whiteSpace=wrap;html=1;fillColor=#f5f5f5;fontSize=10;rotation=90;" vertex="1" parent="1">
          <mxGeometry x="1286" y="457" width="50" height="15" as="geometry" />
        </mxCell>
        <mxCell id="66I1xm5hAQ6pAiA84hfy-62" value="GP17" style="rounded=0;whiteSpace=wrap;html=1;fillColor=#f5f5f5;fontSize=10;rotation=90;" vertex="1" parent="1">
          <mxGeometry x="1265" y="457" width="50" height="15" as="geometry" />
        </mxCell>
        <mxCell id="66I1xm5hAQ6pAiA84hfy-63" value="GP16" style="rounded=0;whiteSpace=wrap;html=1;fillColor=#f5f5f5;fontSize=10;rotation=90;" vertex="1" parent="1">
          <mxGeometry x="1245" y="457" width="50" height="15" as="geometry" />
        </mxCell>
        <mxCell id="66I1xm5hAQ6pAiA84hfy-64" value="REYAX&amp;nbsp;&lt;div&gt;RYLR998&lt;/div&gt;" style="rounded=0;whiteSpace=wrap;html=1;fillColor=#dae8fc;strokeColor=#6c8ebf;" vertex="1" parent="1">
          <mxGeometry x="1552" y="550" width="208" height="110" as="geometry" />
        </mxCell>
        <mxCell id="66I1xm5hAQ6pAiA84hfy-65" value="&lt;font style=&quot;font-size: 6px;&quot;&gt;GND&lt;/font&gt;" style="rounded=0;whiteSpace=wrap;html=1;fillColor=#f5f5f5;fontColor=#333333;strokeColor=#666666;fontSize=6;align=right;" vertex="1" parent="1">
          <mxGeometry x="1502" y="560" width="50" height="10" as="geometry" />
        </mxCell>
        <mxCell id="66I1xm5hAQ6pAiA84hfy-66" value="TXD" style="rounded=0;whiteSpace=wrap;html=1;fillColor=#f5f5f5;fontColor=#333333;strokeColor=#666666;fontSize=6;align=right;" vertex="1" parent="1">
          <mxGeometry x="1502" y="580" width="50" height="10" as="geometry" />
        </mxCell>
        <mxCell id="66I1xm5hAQ6pAiA84hfy-67" value="RXD" style="rounded=0;whiteSpace=wrap;html=1;fillColor=#f5f5f5;fontColor=#333333;strokeColor=#666666;fontSize=6;align=right;" vertex="1" parent="1">
          <mxGeometry x="1502" y="600" width="50" height="10" as="geometry" />
        </mxCell>
        <mxCell id="66I1xm5hAQ6pAiA84hfy-68" value="&lt;font style=&quot;font-size: 6px;&quot;&gt;RST&lt;/font&gt;" style="rounded=0;whiteSpace=wrap;html=1;fillColor=#f5f5f5;fontColor=#333333;strokeColor=#666666;fontSize=6;align=right;" vertex="1" parent="1">
          <mxGeometry x="1502" y="620" width="50" height="10" as="geometry" />
        </mxCell>
        <mxCell id="66I1xm5hAQ6pAiA84hfy-69" value="&lt;font style=&quot;font-size: 6px;&quot;&gt;VCC&lt;/font&gt;" style="rounded=0;whiteSpace=wrap;html=1;fillColor=#f5f5f5;fontColor=#333333;strokeColor=#666666;fontSize=6;align=right;" vertex="1" parent="1">
          <mxGeometry x="1502" y="640" width="50" height="10" as="geometry" />
        </mxCell>
        <mxCell id="66I1xm5hAQ6pAiA84hfy-70" value="" style="endArrow=none;html=1;rounded=0;fillColor=#f8cecc;strokeColor=#b85450;" edge="1" parent="1">
          <mxGeometry width="50" height="50" relative="1" as="geometry">
            <mxPoint x="1249" y="645" as="sourcePoint" />
            <mxPoint x="1502" y="645.4000000000001" as="targetPoint" />
          </mxGeometry>
        </mxCell>
        <mxCell id="66I1xm5hAQ6pAiA84hfy-71" value="" style="endArrow=none;html=1;rounded=0;fillColor=#f8cecc;strokeColor=#000000;" edge="1" parent="1">
          <mxGeometry width="50" height="50" relative="1" as="geometry">
            <mxPoint x="1310" y="565" as="sourcePoint" />
            <mxPoint x="1502" y="565" as="targetPoint" />
          </mxGeometry>
        </mxCell>
        <mxCell id="66I1xm5hAQ6pAiA84hfy-72" value="" style="endArrow=none;html=1;rounded=0;fillColor=#dae8fc;strokeColor=#6c8ebf;" edge="1" parent="1">
          <mxGeometry width="50" height="50" relative="1" as="geometry">
            <mxPoint x="1290" y="584.83" as="sourcePoint" />
            <mxPoint x="1502" y="584.83" as="targetPoint" />
          </mxGeometry>
        </mxCell>
        <mxCell id="66I1xm5hAQ6pAiA84hfy-73" value="" style="endArrow=none;html=1;rounded=0;fillColor=#dae8fc;strokeColor=#6c8ebf;" edge="1" parent="1">
          <mxGeometry width="50" height="50" relative="1" as="geometry">
            <mxPoint x="1270" y="604.83" as="sourcePoint" />
            <mxPoint x="1502" y="604.83" as="targetPoint" />
          </mxGeometry>
        </mxCell>
        <mxCell id="66I1xm5hAQ6pAiA84hfy-74" value="" style="endArrow=none;html=1;rounded=0;fillColor=#dae8fc;strokeColor=#6c8ebf;" edge="1" parent="1">
          <mxGeometry width="50" height="50" relative="1" as="geometry">
            <mxPoint x="1270" y="490" as="sourcePoint" />
            <mxPoint x="1270" y="604.83" as="targetPoint" />
          </mxGeometry>
        </mxCell>
        <mxCell id="66I1xm5hAQ6pAiA84hfy-75" value="" style="endArrow=none;html=1;rounded=0;fillColor=#dae8fc;strokeColor=#6c8ebf;" edge="1" parent="1">
          <mxGeometry width="50" height="50" relative="1" as="geometry">
            <mxPoint x="1290" y="490" as="sourcePoint" />
            <mxPoint x="1290" y="585" as="targetPoint" />
          </mxGeometry>
        </mxCell>
        <mxCell id="66I1xm5hAQ6pAiA84hfy-76" value="" style="endArrow=none;html=1;rounded=0;fillColor=#dae8fc;strokeColor=#000000;" edge="1" parent="1">
          <mxGeometry width="50" height="50" relative="1" as="geometry">
            <mxPoint x="1310" y="490" as="sourcePoint" />
            <mxPoint x="1310" y="565" as="targetPoint" />
          </mxGeometry>
        </mxCell>
        <mxCell id="66I1xm5hAQ6pAiA84hfy-77" value="GND" style="rounded=0;whiteSpace=wrap;html=1;fillColor=#f5f5f5;fontSize=10;rotation=90;" vertex="1" parent="1">
          <mxGeometry x="1286" y="457" width="50" height="15" as="geometry" />
        </mxCell>
        <mxCell id="66I1xm5hAQ6pAiA84hfy-78" value="GP17" style="rounded=0;whiteSpace=wrap;html=1;fillColor=#f5f5f5;fontSize=10;rotation=90;" vertex="1" parent="1">
          <mxGeometry x="1265" y="457" width="50" height="15" as="geometry" />
        </mxCell>
        <mxCell id="66I1xm5hAQ6pAiA84hfy-79" value="+3V" style="rounded=0;whiteSpace=wrap;html=1;fillColor=#f5f5f5;fontSize=10;rotation=90;" vertex="1" parent="1">
          <mxGeometry x="1225" y="457" width="50" height="15" as="geometry" />
        </mxCell>
        <mxCell id="66I1xm5hAQ6pAiA84hfy-81" value="" style="endArrow=none;html=1;rounded=0;fillColor=#f8cecc;strokeColor=#b85450;" edge="1" parent="1">
          <mxGeometry width="50" height="50" relative="1" as="geometry">
            <mxPoint x="1249" y="490" as="sourcePoint" />
            <mxPoint x="1249" y="645" as="targetPoint" />
          </mxGeometry>
        </mxCell>
        <mxCell id="66I1xm5hAQ6pAiA84hfy-82" value="&lt;b&gt;PYPER2&lt;/b&gt;: 3D-Printed RC Car Wiring Diagram&lt;div&gt;&lt;font style=&quot;font-size: 14px;&quot;&gt;github.com/TimHanewich/PYPER2&lt;/font&gt;&lt;/div&gt;&lt;div&gt;&lt;font style=&quot;&quot;&gt;&lt;span style=&quot;font-size: 14px;&quot;&gt;© Tim Hanewich 2025&lt;/span&gt;&lt;br&gt;&lt;/font&gt;&lt;/div&gt;" style="text;html=1;align=center;verticalAlign=middle;whiteSpace=wrap;rounded=0;fontSize=19;fillColor=#dae8fc;strokeColor=#6c8ebf;" vertex="1" parent="1">
          <mxGeometry x="615" y="-140" width="570" height="80" as="geometry" />
        </mxCell>
        <mxCell id="66I1xm5hAQ6pAiA84hfy-101" value="L293D" style="rounded=0;whiteSpace=wrap;html=1;fillColor=#6E6B6B;fontColor=#ffffff;strokeColor=#314354;" vertex="1" parent="1">
          <mxGeometry x="970" y="470" width="80" height="200" as="geometry" />
        </mxCell>
        <mxCell id="66I1xm5hAQ6pAiA84hfy-102" value="" style="shape=or;whiteSpace=wrap;html=1;rotation=90;" vertex="1" parent="1">
          <mxGeometry x="1005" y="465" width="10" height="20" as="geometry" />
        </mxCell>
        <mxCell id="66I1xm5hAQ6pAiA84hfy-103" value="" style="rounded=0;whiteSpace=wrap;html=1;" vertex="1" parent="1">
          <mxGeometry x="960" y="475" width="10" height="15" as="geometry" />
        </mxCell>
        <mxCell id="66I1xm5hAQ6pAiA84hfy-104" value="" style="rounded=0;whiteSpace=wrap;html=1;" vertex="1" parent="1">
          <mxGeometry x="960" y="500" width="10" height="15" as="geometry" />
        </mxCell>
        <mxCell id="66I1xm5hAQ6pAiA84hfy-105" value="" style="rounded=0;whiteSpace=wrap;html=1;" vertex="1" parent="1">
          <mxGeometry x="960" y="525" width="10" height="15" as="geometry" />
        </mxCell>
        <mxCell id="66I1xm5hAQ6pAiA84hfy-106" value="" style="rounded=0;whiteSpace=wrap;html=1;" vertex="1" parent="1">
          <mxGeometry x="960" y="550" width="10" height="15" as="geometry" />
        </mxCell>
        <mxCell id="66I1xm5hAQ6pAiA84hfy-107" value="" style="rounded=0;whiteSpace=wrap;html=1;" vertex="1" parent="1">
          <mxGeometry x="960" y="575" width="10" height="15" as="geometry" />
        </mxCell>
        <mxCell id="66I1xm5hAQ6pAiA84hfy-108" value="" style="rounded=0;whiteSpace=wrap;html=1;" vertex="1" parent="1">
          <mxGeometry x="960" y="600" width="10" height="15" as="geometry" />
        </mxCell>
        <mxCell id="66I1xm5hAQ6pAiA84hfy-109" value="" style="rounded=0;whiteSpace=wrap;html=1;" vertex="1" parent="1">
          <mxGeometry x="960" y="625" width="10" height="15" as="geometry" />
        </mxCell>
        <mxCell id="66I1xm5hAQ6pAiA84hfy-110" value="" style="rounded=0;whiteSpace=wrap;html=1;" vertex="1" parent="1">
          <mxGeometry x="960" y="650" width="10" height="15" as="geometry" />
        </mxCell>
        <mxCell id="66I1xm5hAQ6pAiA84hfy-111" value="" style="rounded=0;whiteSpace=wrap;html=1;" vertex="1" parent="1">
          <mxGeometry x="1050" y="475" width="10" height="15" as="geometry" />
        </mxCell>
        <mxCell id="66I1xm5hAQ6pAiA84hfy-112" value="" style="rounded=0;whiteSpace=wrap;html=1;" vertex="1" parent="1">
          <mxGeometry x="1050" y="500" width="10" height="15" as="geometry" />
        </mxCell>
        <mxCell id="66I1xm5hAQ6pAiA84hfy-113" value="" style="rounded=0;whiteSpace=wrap;html=1;" vertex="1" parent="1">
          <mxGeometry x="1050" y="525" width="10" height="15" as="geometry" />
        </mxCell>
        <mxCell id="66I1xm5hAQ6pAiA84hfy-114" value="" style="rounded=0;whiteSpace=wrap;html=1;" vertex="1" parent="1">
          <mxGeometry x="1050" y="550" width="10" height="15" as="geometry" />
        </mxCell>
        <mxCell id="66I1xm5hAQ6pAiA84hfy-115" value="" style="rounded=0;whiteSpace=wrap;html=1;" vertex="1" parent="1">
          <mxGeometry x="1050" y="575" width="10" height="15" as="geometry" />
        </mxCell>
        <mxCell id="66I1xm5hAQ6pAiA84hfy-116" value="" style="rounded=0;whiteSpace=wrap;html=1;" vertex="1" parent="1">
          <mxGeometry x="1050" y="600" width="10" height="15" as="geometry" />
        </mxCell>
        <mxCell id="66I1xm5hAQ6pAiA84hfy-117" value="" style="rounded=0;whiteSpace=wrap;html=1;" vertex="1" parent="1">
          <mxGeometry x="1050" y="625" width="10" height="15" as="geometry" />
        </mxCell>
        <mxCell id="66I1xm5hAQ6pAiA84hfy-118" value="" style="rounded=0;whiteSpace=wrap;html=1;" vertex="1" parent="1">
          <mxGeometry x="1050" y="650" width="10" height="15" as="geometry" />
        </mxCell>
        <mxCell id="66I1xm5hAQ6pAiA84hfy-119" value="" style="endArrow=none;html=1;rounded=0;fillColor=#f8cecc;strokeColor=#b85450;exitX=1;exitY=0.5;exitDx=0;exitDy=0;" edge="1" parent="1" source="66I1xm5hAQ6pAiA84hfy-111">
          <mxGeometry width="50" height="50" relative="1" as="geometry">
            <mxPoint x="1015" y="497.5" as="sourcePoint" />
            <mxPoint x="1110" y="483" as="targetPoint" />
          </mxGeometry>
        </mxCell>
        <mxCell id="66I1xm5hAQ6pAiA84hfy-121" value="" style="endArrow=none;html=1;rounded=0;fillColor=#f8cecc;strokeColor=#000000;" edge="1" parent="1">
          <mxGeometry width="50" height="50" relative="1" as="geometry">
            <mxPoint x="940" y="558" as="sourcePoint" />
            <mxPoint x="940" y="423" as="targetPoint" />
          </mxGeometry>
        </mxCell>
        <mxCell id="66I1xm5hAQ6pAiA84hfy-122" value="" style="endArrow=none;html=1;rounded=0;fillColor=#f8cecc;strokeColor=#000000;exitX=0;exitY=0.5;exitDx=0;exitDy=0;" edge="1" parent="1" source="66I1xm5hAQ6pAiA84hfy-106">
          <mxGeometry width="50" height="50" relative="1" as="geometry">
            <mxPoint x="920" y="645" as="sourcePoint" />
            <mxPoint x="940" y="558" as="targetPoint" />
          </mxGeometry>
        </mxCell>
        <mxCell id="66I1xm5hAQ6pAiA84hfy-123" value="TT&lt;br&gt;Motor" style="ellipse;whiteSpace=wrap;html=1;aspect=fixed;fillColor=#fad9d5;strokeColor=#ae4132;" vertex="1" parent="1">
          <mxGeometry x="690" y="530" width="80" height="80" as="geometry" />
        </mxCell>
        <mxCell id="66I1xm5hAQ6pAiA84hfy-124" value="" style="endArrow=none;html=1;rounded=0;exitX=1;exitY=0;exitDx=0;exitDy=0;entryX=0;entryY=0.5;entryDx=0;entryDy=0;fillColor=#6a00ff;strokeColor=#3700CC;" edge="1" parent="1" source="66I1xm5hAQ6pAiA84hfy-123" target="66I1xm5hAQ6pAiA84hfy-105">
          <mxGeometry width="50" height="50" relative="1" as="geometry">
            <mxPoint x="1020" y="570" as="sourcePoint" />
            <mxPoint x="1070" y="520" as="targetPoint" />
          </mxGeometry>
        </mxCell>
        <mxCell id="66I1xm5hAQ6pAiA84hfy-125" value="" style="endArrow=none;html=1;rounded=0;exitX=1;exitY=1;exitDx=0;exitDy=0;entryX=0;entryY=0.5;entryDx=0;entryDy=0;fillColor=#6a00ff;strokeColor=#3700CC;" edge="1" parent="1" source="66I1xm5hAQ6pAiA84hfy-123" target="66I1xm5hAQ6pAiA84hfy-108">
          <mxGeometry width="50" height="50" relative="1" as="geometry">
            <mxPoint x="678" y="532" as="sourcePoint" />
            <mxPoint x="970" y="543" as="targetPoint" />
          </mxGeometry>
        </mxCell>
        <mxCell id="66I1xm5hAQ6pAiA84hfy-126" value="" style="endArrow=none;html=1;rounded=0;entryX=0;entryY=0.75;entryDx=0;entryDy=0;fillColor=#1ba1e2;strokeColor=#006EAF;" edge="1" parent="1" target="66I1xm5hAQ6pAiA84hfy-104">
          <mxGeometry width="50" height="50" relative="1" as="geometry">
            <mxPoint x="910" y="511" as="sourcePoint" />
            <mxPoint x="1070" y="520" as="targetPoint" />
          </mxGeometry>
        </mxCell>
        <mxCell id="66I1xm5hAQ6pAiA84hfy-127" value="" style="endArrow=none;html=1;rounded=0;fillColor=#1ba1e2;strokeColor=#006EAF;" edge="1" parent="1">
          <mxGeometry width="50" height="50" relative="1" as="geometry">
            <mxPoint x="910" y="380" as="sourcePoint" />
            <mxPoint x="910" y="511" as="targetPoint" />
          </mxGeometry>
        </mxCell>
        <mxCell id="66I1xm5hAQ6pAiA84hfy-128" value="" style="endArrow=none;html=1;rounded=0;fillColor=#1ba1e2;strokeColor=#006EAF;" edge="1" parent="1">
          <mxGeometry width="50" height="50" relative="1" as="geometry">
            <mxPoint x="900" y="632" as="sourcePoint" />
            <mxPoint x="900" y="360" as="targetPoint" />
          </mxGeometry>
        </mxCell>
        <mxCell id="66I1xm5hAQ6pAiA84hfy-131" value="" style="endArrow=none;html=1;rounded=0;entryX=0;entryY=0.75;entryDx=0;entryDy=0;fillColor=#1ba1e2;strokeColor=#006EAF;" edge="1" parent="1">
          <mxGeometry width="50" height="50" relative="1" as="geometry">
            <mxPoint x="920" y="482.21000000000004" as="sourcePoint" />
            <mxPoint x="960" y="482.21000000000004" as="targetPoint" />
          </mxGeometry>
        </mxCell>
        <mxCell id="66I1xm5hAQ6pAiA84hfy-132" value="" style="endArrow=none;html=1;rounded=0;fillColor=#1ba1e2;strokeColor=#006EAF;" edge="1" parent="1">
          <mxGeometry width="50" height="50" relative="1" as="geometry">
            <mxPoint x="920" y="400" as="sourcePoint" />
            <mxPoint x="920" y="482" as="targetPoint" />
          </mxGeometry>
        </mxCell>
        <mxCell id="66I1xm5hAQ6pAiA84hfy-136" value="" style="endArrow=none;html=1;rounded=0;fillColor=#f8cecc;strokeColor=#b85450;" edge="1" parent="1">
          <mxGeometry width="50" height="50" relative="1" as="geometry">
            <mxPoint x="1110" y="145" as="sourcePoint" />
            <mxPoint x="1110" y="690" as="targetPoint" />
          </mxGeometry>
        </mxCell>
        <mxCell id="66I1xm5hAQ6pAiA84hfy-137" value="" style="endArrow=none;html=1;rounded=0;fillColor=#f8cecc;strokeColor=#b85450;" edge="1" parent="1">
          <mxGeometry width="50" height="50" relative="1" as="geometry">
            <mxPoint x="930" y="690" as="sourcePoint" />
            <mxPoint x="1110" y="690" as="targetPoint" />
          </mxGeometry>
        </mxCell>
        <mxCell id="66I1xm5hAQ6pAiA84hfy-138" value="" style="endArrow=none;html=1;rounded=0;fillColor=#f8cecc;strokeColor=#b85450;" edge="1" parent="1">
          <mxGeometry width="50" height="50" relative="1" as="geometry">
            <mxPoint x="930" y="657" as="sourcePoint" />
            <mxPoint x="930" y="690" as="targetPoint" />
          </mxGeometry>
        </mxCell>
        <mxCell id="66I1xm5hAQ6pAiA84hfy-139" value="" style="endArrow=none;html=1;rounded=0;fillColor=#f8cecc;strokeColor=#b85450;exitX=0;exitY=0.5;exitDx=0;exitDy=0;endSize=6;" edge="1" parent="1" source="66I1xm5hAQ6pAiA84hfy-110">
          <mxGeometry width="50" height="50" relative="1" as="geometry">
            <mxPoint x="950" y="658.13" as="sourcePoint" />
            <mxPoint x="930" y="657" as="targetPoint" />
          </mxGeometry>
        </mxCell>
        <mxCell id="66I1xm5hAQ6pAiA84hfy-140" value="" style="endArrow=none;html=1;rounded=0;fillColor=#f8cecc;strokeColor=#000000;" edge="1" parent="1">
          <mxGeometry width="50" height="50" relative="1" as="geometry">
            <mxPoint x="940" y="423" as="sourcePoint" />
            <mxPoint x="1150" y="423" as="targetPoint" />
          </mxGeometry>
        </mxCell>
        <mxCell id="66I1xm5hAQ6pAiA84hfy-141" value="SG90 Servo" style="whiteSpace=wrap;html=1;aspect=fixed;fillColor=#b1ddf0;strokeColor=#10739e;" vertex="1" parent="1">
          <mxGeometry x="1490" y="212.5" width="117.5" height="117.5" as="geometry" />
        </mxCell>
        <mxCell id="66I1xm5hAQ6pAiA84hfy-142" value="VIN (+5V)" style="text;html=1;align=left;verticalAlign=middle;whiteSpace=wrap;rounded=0;" vertex="1" parent="1">
          <mxGeometry x="1490" y="215" width="80" height="30" as="geometry" />
        </mxCell>
        <mxCell id="66I1xm5hAQ6pAiA84hfy-144" value="Signal (yellow)" style="text;html=1;strokeColor=none;fillColor=none;align=left;verticalAlign=middle;whiteSpace=wrap;rounded=0;" vertex="1" parent="1">
          <mxGeometry x="1490" y="280" width="105" height="30" as="geometry" />
        </mxCell>
        <mxCell id="66I1xm5hAQ6pAiA84hfy-145" value="GND" style="text;html=1;strokeColor=none;fillColor=none;align=left;verticalAlign=middle;whiteSpace=wrap;rounded=0;" vertex="1" parent="1">
          <mxGeometry x="1490" y="240" width="80" height="30" as="geometry" />
        </mxCell>
        <mxCell id="66I1xm5hAQ6pAiA84hfy-146" value="" style="endArrow=none;html=1;rounded=0;fillColor=#f8cecc;strokeColor=#000000;" edge="1" parent="1">
          <mxGeometry width="50" height="50" relative="1" as="geometry">
            <mxPoint x="1150" y="195" as="sourcePoint" />
            <mxPoint x="1150" y="423" as="targetPoint" />
          </mxGeometry>
        </mxCell>
        <mxCell id="66I1xm5hAQ6pAiA84hfy-147" value="" style="endArrow=none;html=1;rounded=0;fillColor=#1ba1e2;strokeColor=#006EAF;entryX=0.006;entryY=0.918;entryDx=0;entryDy=0;entryPerimeter=0;" edge="1" parent="1">
          <mxGeometry width="50" height="50" relative="1" as="geometry">
            <mxPoint x="900" y="632" as="sourcePoint" />
            <mxPoint x="960" y="632" as="targetPoint" />
          </mxGeometry>
        </mxCell>
        <mxCell id="66I1xm5hAQ6pAiA84hfy-148" value="" style="endArrow=none;html=1;rounded=0;fillColor=#1ba1e2;strokeColor=#006EAF;" edge="1" parent="1">
          <mxGeometry width="50" height="50" relative="1" as="geometry">
            <mxPoint x="1210" y="400" as="sourcePoint" />
            <mxPoint x="920" y="400" as="targetPoint" />
          </mxGeometry>
        </mxCell>
        <mxCell id="66I1xm5hAQ6pAiA84hfy-149" value="" style="endArrow=none;html=1;rounded=0;fillColor=#1ba1e2;strokeColor=#006EAF;" edge="1" parent="1">
          <mxGeometry width="50" height="50" relative="1" as="geometry">
            <mxPoint x="1210" y="380" as="sourcePoint" />
            <mxPoint x="910" y="380" as="targetPoint" />
          </mxGeometry>
        </mxCell>
        <mxCell id="66I1xm5hAQ6pAiA84hfy-150" value="" style="endArrow=none;html=1;rounded=0;fillColor=#1ba1e2;strokeColor=#006EAF;" edge="1" parent="1">
          <mxGeometry width="50" height="50" relative="1" as="geometry">
            <mxPoint x="1210" y="359.83" as="sourcePoint" />
            <mxPoint x="900" y="359.83" as="targetPoint" />
          </mxGeometry>
        </mxCell>
        <mxCell id="66I1xm5hAQ6pAiA84hfy-152" value="GP20" style="rounded=0;whiteSpace=wrap;html=1;fillColor=#f5f5f5;fontSize=10;" vertex="1" parent="1">
          <mxGeometry x="1210" y="372" width="50" height="15" as="geometry" />
        </mxCell>
        <mxCell id="66I1xm5hAQ6pAiA84hfy-153" value="GP19" style="rounded=0;whiteSpace=wrap;html=1;fillColor=#f5f5f5;fontSize=10;" vertex="1" parent="1">
          <mxGeometry x="1210" y="392" width="50" height="15" as="geometry" />
        </mxCell>
        <mxCell id="66I1xm5hAQ6pAiA84hfy-154" value="" style="endArrow=none;html=1;rounded=0;fillColor=#f8cecc;strokeColor=#b85450;entryX=1;entryY=0.5;entryDx=0;entryDy=0;" edge="1" parent="1">
          <mxGeometry width="50" height="50" relative="1" as="geometry">
            <mxPoint x="1490" y="229.31" as="sourcePoint" />
            <mxPoint x="1450" y="229.31" as="targetPoint" />
          </mxGeometry>
        </mxCell>
        <mxCell id="66I1xm5hAQ6pAiA84hfy-155" value="" style="endArrow=none;html=1;rounded=0;entryX=1;entryY=0.5;entryDx=0;entryDy=0;" edge="1" parent="1">
          <mxGeometry width="50" height="50" relative="1" as="geometry">
            <mxPoint x="1490" y="254.83" as="sourcePoint" />
            <mxPoint x="1440" y="254.83" as="targetPoint" />
          </mxGeometry>
        </mxCell>
        <mxCell id="66I1xm5hAQ6pAiA84hfy-156" value="" style="endArrow=none;html=1;rounded=0;fillColor=#fff2cc;strokeColor=#d6b656;entryX=1;entryY=0.5;entryDx=0;entryDy=0;" edge="1" parent="1">
          <mxGeometry width="50" height="50" relative="1" as="geometry">
            <mxPoint x="1490" y="294.83" as="sourcePoint" />
            <mxPoint x="1390" y="294.83" as="targetPoint" />
          </mxGeometry>
        </mxCell>
        <mxCell id="66I1xm5hAQ6pAiA84hfy-157" value="GP18" style="rounded=0;whiteSpace=wrap;html=1;fillColor=#f5f5f5;fontSize=10;" vertex="1" parent="1">
          <mxGeometry x="1340" y="287.5" width="50" height="15" as="geometry" />
        </mxCell>
        <mxCell id="66I1xm5hAQ6pAiA84hfy-158" value="" style="endArrow=none;html=1;rounded=0;fillColor=#f8cecc;strokeColor=#b85450;" edge="1" parent="1">
          <mxGeometry width="50" height="50" relative="1" as="geometry">
            <mxPoint x="1450" y="229" as="sourcePoint" />
            <mxPoint x="1450" y="80" as="targetPoint" />
          </mxGeometry>
        </mxCell>
        <mxCell id="66I1xm5hAQ6pAiA84hfy-159" value="" style="endArrow=none;html=1;rounded=0;" edge="1" parent="1">
          <mxGeometry width="50" height="50" relative="1" as="geometry">
            <mxPoint x="1440" y="90" as="sourcePoint" />
            <mxPoint x="1440" y="255" as="targetPoint" />
          </mxGeometry>
        </mxCell>
        <mxCell id="66I1xm5hAQ6pAiA84hfy-160" value="" style="endArrow=none;html=1;rounded=0;fillColor=#f8cecc;strokeColor=#b85450;entryX=1;entryY=0.5;entryDx=0;entryDy=0;" edge="1" parent="1">
          <mxGeometry width="50" height="50" relative="1" as="geometry">
            <mxPoint x="1450" y="80" as="sourcePoint" />
            <mxPoint x="1110" y="80" as="targetPoint" />
          </mxGeometry>
        </mxCell>
        <mxCell id="66I1xm5hAQ6pAiA84hfy-161" value="" style="endArrow=none;html=1;rounded=0;fillColor=#f8cecc;strokeColor=#b85450;" edge="1" parent="1">
          <mxGeometry width="50" height="50" relative="1" as="geometry">
            <mxPoint x="1110" y="145" as="sourcePoint" />
            <mxPoint x="1110" y="80" as="targetPoint" />
          </mxGeometry>
        </mxCell>
        <mxCell id="66I1xm5hAQ6pAiA84hfy-162" value="" style="endArrow=none;html=1;rounded=0;entryX=1;entryY=0.5;entryDx=0;entryDy=0;" edge="1" parent="1">
          <mxGeometry width="50" height="50" relative="1" as="geometry">
            <mxPoint x="1440" y="90" as="sourcePoint" />
            <mxPoint x="1150" y="90" as="targetPoint" />
          </mxGeometry>
        </mxCell>
        <mxCell id="66I1xm5hAQ6pAiA84hfy-163" value="" style="endArrow=none;html=1;rounded=0;fillColor=#f8cecc;strokeColor=#000000;" edge="1" parent="1">
          <mxGeometry width="50" height="50" relative="1" as="geometry">
            <mxPoint x="1150" y="90" as="sourcePoint" />
            <mxPoint x="1150" y="196" as="targetPoint" />
          </mxGeometry>
        </mxCell>
      </root>
    </mxGraphModel>
  </diagram>
</mxfile>
